<svg xmlns="http://www.w3.org/2000/svg" version="1.1" xmlns:xlink="http://www.w3.org/1999/xlink" xmlns:svgjs="http://svgjs.dev/svgjs" width="1500" height="522" viewBox="0 0 1500 522"><g transform="matrix(1,0,0,1,-0.9090909090909918,-0.9760384884977498)"><svg viewBox="0 0 396 138" data-background-color="#dfd5cb" preserveAspectRatio="xMidYMid meet" height="522" width="1500" xmlns="http://www.w3.org/2000/svg" xmlns:xlink="http://www.w3.org/1999/xlink"><g id="tight-bounds" transform="matrix(1,0,0,1,0.2400000000000091,0.2580331636258393)"><svg viewBox="0 0 395.52 125.15804159469425" height="125.15804159469425" width="395.52"><g><svg viewBox="0 0 395.52 125.15804159469425" height="125.15804159469425" width="395.52"><g><svg viewBox="0 0 395.52 125.15804159469425" height="125.15804159469425" width="395.52"><g id="textblocktransform"><svg viewBox="0 0 395.52 125.15804159469425" height="125.15804159469425" width="395.52" id="textblock"><g><rect width="395.52" height="103.27602045259599" fill="none" stroke-width="8.962371322224001" stroke="#ff5e48" data-fill-palette-color="none" data-stroke-palette-color="tertiary"></rect><rect width="395.52" height="34.20791322015232" y="103.27602045259599" fill="#ff5e48" data-fill-palette-color="tertiary"></rect></g><g><svg viewBox="0 0 395.52 102.27602045259599" height="102.27602045259599" width="395.52"><g transform="matrix(1,0,0,1,23.461705032,23.461705032)"><svg width="348.596589936" viewBox="1.7 -32.75 209.37 33.25" height="55.352610388595984" data-palette-color="#ff5e48"><path d="M3.15 0L3.15-16.65 1.7-18.9Q3.9-20.75 6.58-21.68 9.25-22.6 12-23L12-23 12.55-20Q10.15-19.65 8.7-19.18 7.25-18.7 6.35-18.2L6.35-18.2 6.35 0 3.15 0ZM31.2-10.35L19-10.35 19-3.8Q20.15-3 21.5-2.75 22.85-2.5 24-2.5L24-2.5Q26.15-2.5 27.87-2.98 29.6-3.45 31.2-4.55L31.2-4.55 31.2-1.2Q29.7-0.3 27.92 0.1 26.15 0.5 24.1 0.5L24.1 0.5Q20.9 0.5 18.47-0.4 16.05-1.3 14.05-3.05L14.05-3.05 15.8-5.1 15.8-13.25Q15.8-14.2 15.82-15.5 15.85-16.8 16.25-18.2 16.65-19.6 17.7-20.8L17.7-20.8Q19.05-22.3 20.62-22.65 22.2-23 23.45-23L23.45-23Q24.75-23 26.32-22.65 27.9-22.3 29.2-20.8L29.2-20.8Q30.25-19.6 30.67-18.2 31.1-16.8 31.15-15.5 31.2-14.2 31.2-13.25L31.2-13.25 31.2-10.35ZM19-13.35L27.7-13.35Q27.7-14.45 27.6-15.85 27.5-17.25 26.8-18.3L26.8-18.3Q26.5-18.8 25.7-19.4 24.9-20 23.35-20L23.35-20Q21.85-20 21.02-19.4 20.2-18.8 19.85-18.3L19.85-18.3Q19.2-17.25 19.1-15.85 19-14.45 19-13.35L19-13.35ZM38.8-19.85L39.05-23Q41.15-23 43.25-22.63 45.35-22.25 47.1-21.33 48.85-20.4 49.9-18.68 50.95-16.95 50.95-14.25L50.95-14.25 50.95-4.25 52.3-1.95Q50-0.65 47.72-0.08 45.45 0.5 43.55 0.5L43.55 0.5Q41.1 0.5 39.6-0.13 38.1-0.75 37.25-1.55L37.25-1.55Q36.45-2.4 35.85-3.68 35.25-4.95 35.25-6.55L35.25-6.55Q35.25-9.05 36.3-10.68 37.35-12.3 39.12-13.2 40.9-14.1 43.12-14.48 45.35-14.85 47.75-14.85L47.75-14.85Q47.65-16.5 46.77-17.48 45.9-18.45 44.57-18.95 43.25-19.45 41.75-19.63 40.25-19.8 38.8-19.85L38.8-19.85ZM47.75-3.35L47.75-11.85Q46.55-11.85 45-11.7 43.45-11.55 42-11.08 40.55-10.6 39.6-9.6 38.65-8.6 38.65-6.9L38.65-6.9Q38.65-5.75 39-4.98 39.35-4.2 39.8-3.8L39.8-3.8Q40.6-3 41.62-2.75 42.65-2.5 43.65-2.5L43.65-2.5Q44.85-2.5 45.85-2.75 46.85-3 47.75-3.35L47.75-3.35ZM72.64-4.35L73.99-1.8Q72.44-0.9 70.29-0.2 68.14 0.5 65.54 0.5L65.54 0.5Q62.14 0.5 60.04-1.2 57.94-2.9 57.02-5.58 56.09-8.25 56.09-11.25L56.09-11.25Q56.09-14.25 57.12-16.93 58.14-19.6 60.19-21.3 62.24-23 65.34-23L65.34-23Q66.49-23 67.44-22.85 68.39-22.7 69.44-22.4L69.44-22.4 69.44-29.6 68.44-32.75 72.64-32.75 72.64-4.35ZM69.44-3.3L69.44-19.2Q68.89-19.45 67.97-19.73 67.04-20 65.84-20L65.84-20Q63.39-20 61.99-18.65 60.59-17.3 59.99-15.28 59.39-13.25 59.39-11.25L59.39-11.25Q59.39-9.25 59.92-7.23 60.44-5.2 61.84-3.85 63.24-2.5 65.74-2.5L65.74-2.5Q67.84-2.5 69.44-3.3L69.44-3.3ZM86.74-28.5L90.94-28.5 90.94-22.5 95.69-22.5 95.69-19.4 90.94-19.4 90.94-12.95Q90.94-11.55 91.01-9.8 91.09-8.05 92.04-6.45L92.04-6.45Q92.74-5.3 94.21-4.05 95.69-2.8 96.99-2L96.99-2 95.09 0.5Q93.64-0.3 92.16-1.5 90.69-2.7 89.74-4L89.74-4Q88.39-5.9 88.06-7.83 87.74-9.75 87.74-11.65L87.74-11.65 87.74-25.35 86.74-28.5ZM103.64-32.75L103.64-22.35Q104.54-22.65 105.61-22.83 106.69-23 107.84-23L107.84-23Q109.09-23 110.59-22.73 112.09-22.45 113.44-21.63 114.79-20.8 115.59-19.05L115.59-19.05Q115.94-18.3 116.14-17.25 116.34-16.2 116.41-14.53 116.49-12.85 116.49-10.15L116.49-10.15 116.49 0 113.29 0 113.29-10.25Q113.29-13.55 113.14-15.28 112.99-17 112.34-17.95L112.34-17.95Q111.94-18.65 110.86-19.33 109.79-20 107.64-20L107.64-20Q106.39-20 105.41-19.8 104.44-19.6 103.64-19.25L103.64-19.25 103.64 0 100.44 0 100.44-29.6 99.44-32.75 103.64-32.75ZM137.48-10.35L125.28-10.35 125.28-3.8Q126.43-3 127.78-2.75 129.13-2.5 130.28-2.5L130.28-2.5Q132.43-2.5 134.16-2.98 135.88-3.45 137.48-4.55L137.48-4.55 137.48-1.2Q135.98-0.3 134.21 0.1 132.43 0.5 130.38 0.5L130.38 0.5Q127.18 0.5 124.76-0.4 122.33-1.3 120.33-3.05L120.33-3.05 122.08-5.1 122.08-13.25Q122.08-14.2 122.11-15.5 122.13-16.8 122.53-18.2 122.93-19.6 123.98-20.8L123.98-20.8Q125.33-22.3 126.91-22.65 128.48-23 129.73-23L129.73-23Q131.03-23 132.61-22.65 134.18-22.3 135.48-20.8L135.48-20.8Q136.53-19.6 136.96-18.2 137.38-16.8 137.43-15.5 137.48-14.2 137.48-13.25L137.48-13.25 137.48-10.35ZM125.28-13.35L133.98-13.35Q133.98-14.45 133.88-15.85 133.78-17.25 133.08-18.3L133.08-18.3Q132.78-18.8 131.98-19.4 131.18-20 129.63-20L129.63-20Q128.13-20 127.31-19.4 126.48-18.8 126.13-18.3L126.13-18.3Q125.48-17.25 125.38-15.85 125.28-14.45 125.28-13.35L125.28-13.35ZM151.98-1.75L151.98-13.25Q151.98-14.2 152.03-15.5 152.08-16.8 152.5-18.2 152.93-19.6 154.03-20.8L154.03-20.8Q155.43-22.3 157.1-22.65 158.78-23 160.03-23L160.03-23Q161.33-23 162.98-22.65 164.63-22.3 166.03-20.8L166.03-20.8Q167.13-19.6 167.55-18.2 167.98-16.8 168.03-15.5 168.08-14.2 168.08-13.25L168.08-13.25 168.08-5.1 169.78-3.05Q167.78-1.3 165.38-0.4 162.98 0.5 160.03 0.5L160.03 0.5Q157.13 0.5 155.15-0.23 153.18-0.95 151.98-1.75L151.98-1.75ZM155.18-13.35L155.18-3.8Q156.33-3 157.63-2.75 158.93-2.5 160.03-2.5L160.03-2.5Q161.13-2.5 162.45-2.75 163.78-3 164.88-3.8L164.88-3.8 164.88-13.35Q164.88-14.45 164.75-15.85 164.63-17.25 163.88-18.3L163.88-18.3Q163.53-18.8 162.63-19.4 161.73-20 160.03-20L160.03-20Q158.33-20 157.45-19.4 156.58-18.8 156.18-18.3L156.18-18.3Q155.43-17.25 155.3-15.85 155.18-14.45 155.18-13.35L155.18-13.35ZM173.98-18.25L172.83-20.7Q174.13-21.5 176.28-22.25 178.43-23 181.43-23L181.43-23Q182.73-23 184.2-22.73 185.68-22.45 187.03-21.63 188.38-20.8 189.23-19.05L189.23-19.05Q189.58-18.3 189.75-17.25 189.93-16.2 190.03-14.53 190.13-12.85 190.13-10.15L190.13-10.15 190.13 0 186.93 0 186.93-10.25Q186.93-13.55 186.75-15.28 186.58-17 185.98-17.95L185.98-17.95Q185.53-18.65 184.45-19.33 183.38-20 181.23-20L181.23-20Q180.03-20 179.03-19.8 178.03-19.6 177.18-19.25L177.18-19.25 177.18 0 173.98 0 173.98-18.25ZM211.07-10.35L198.87-10.35 198.87-3.8Q200.02-3 201.37-2.75 202.72-2.5 203.87-2.5L203.87-2.5Q206.02-2.5 207.75-2.98 209.47-3.45 211.07-4.55L211.07-4.55 211.07-1.2Q209.57-0.3 207.8 0.1 206.02 0.5 203.97 0.5L203.97 0.5Q200.77 0.5 198.35-0.4 195.92-1.3 193.92-3.05L193.92-3.05 195.67-5.1 195.67-13.25Q195.67-14.2 195.7-15.5 195.72-16.8 196.12-18.2 196.52-19.6 197.57-20.8L197.57-20.8Q198.92-22.3 200.5-22.65 202.07-23 203.32-23L203.32-23Q204.62-23 206.2-22.65 207.77-22.3 209.07-20.8L209.07-20.8Q210.12-19.6 210.55-18.2 210.97-16.8 211.02-15.5 211.07-14.2 211.07-13.25L211.07-13.25 211.07-10.35ZM198.87-13.35L207.57-13.35Q207.57-14.45 207.47-15.85 207.37-17.25 206.67-18.3L206.67-18.3Q206.37-18.8 205.57-19.4 204.77-20 203.22-20L203.22-20Q201.72-20 200.9-19.4 200.07-18.8 199.72-18.3L199.72-18.3Q199.07-17.25 198.97-15.85 198.87-14.45 198.87-13.35L198.87-13.35Z" opacity="1" transform="matrix(1,0,0,1,0,0)" fill="#ff5e48" class="wordmark-text-0" data-fill-palette-color="primary" id="text-0"></path></svg></g></svg></g><g transform="matrix(1,0,0,1,75.54432,102.27602045259599)"><svg viewBox="0 0 244.43135999999998 22.882021142098274" height="22.882021142098274" width="244.43135999999998"><g transform="matrix(1,0,0,1,20,3.2)"><svg width="204.43135999999998" viewBox="4.69 -38.84 569.8399999999999 45.940000000000005" height="16.482021142098272" data-palette-color="#dfd5cb"><path d="M4.69 0L4.69-28.25 10.55-28.25 10.55-25.56 28.96-25.56Q28.86-24.71 28.48-23.94 28.1-23.17 27.54-22.61 26.98-22.05 26.26-21.72 25.54-21.39 24.78-21.39L24.78-21.39 24.78-4.17 30.44-4.17Q30.35-3.32 29.97-2.55 29.59-1.78 29-1.22 28.42-0.66 27.66-0.33 26.9 0 26.05 0L26.05 0 23.61 0Q22.66 0 21.8-0.49 20.95-0.98 20.31-1.82 19.68-2.66 19.31-3.78 18.95-4.91 18.95-6.2L18.95-6.2 18.95-21.39 10.5-21.39 10.5 0 4.69 0ZM35.81-6.2L35.81-19.36Q35.81-20.65 36.18-21.78 36.55-22.9 37.17-23.74 37.79-24.58 38.64-25.07 39.5-25.56 40.45-25.56L40.45-25.56 53.42-25.56Q54.37-25.56 55.21-25.07 56.05-24.58 56.69-23.74 57.32-22.9 57.69-21.78 58.05-20.65 58.05-19.36L58.05-19.36 58.05-11.23 41.65-11.23 41.65-4.17 59.57-4.17Q59.47-3.32 59.09-2.55 58.71-1.78 58.14-1.22 57.57-0.66 56.83-0.33 56.1 0 55.3 0L55.3 0 40.45 0Q39.5 0 38.64-0.49 37.79-0.98 37.17-1.82 36.55-2.66 36.18-3.78 35.81-4.91 35.81-6.2L35.81-6.2ZM41.65-14.65L52.22-14.65 52.22-21.39 41.65-21.39 41.65-14.65ZM66.94-6.13L66.94-18.68Q66.94-20.14 67.34-21.41 67.74-22.68 68.45-23.61 69.16-24.54 70.12-25.06 71.09-25.59 72.21-25.59L72.21-25.59 88.67-25.59 88.67-4.17 93.96-4.17Q93.87-3.32 93.49-2.55 93.11-1.78 92.54-1.22 91.96-0.66 91.23-0.33 90.5 0 89.69 0L89.69 0 87.08 0Q85.88 0 84.81-0.82 83.74-1.64 83.03-3.03L83.03-3.03Q82.32-1.64 81.25-0.82 80.17 0 78.97 0L78.97 0 71.58 0Q70.62 0 69.77-0.49 68.92-0.98 68.29-1.81 67.67-2.64 67.3-3.75 66.94-4.86 66.94-6.13L66.94-6.13ZM72.75-4.17L82.86-4.17 82.86-21.39 72.75-21.39 72.75-4.17ZM98.21-6.2L98.21-19.36Q98.21-20.65 98.58-21.78 98.94-22.9 99.57-23.74 100.19-24.58 101.04-25.07 101.9-25.56 102.85-25.56L102.85-25.56 114.13-25.56 114.13-38.82 119.94-38.82 119.94-4.17 124.58-4.17Q124.48-3.32 124.1-2.55 123.72-1.78 123.15-1.22 122.58-0.66 121.84-0.33 121.11 0 120.31 0L120.31 0 114.13 0 114.13-2.66Q113.47-1.42 112.44-0.71 111.42 0 110.27 0L110.27 0 102.85 0Q101.9 0 101.04-0.49 100.19-0.98 99.57-1.82 98.94-2.66 98.58-3.78 98.21-4.91 98.21-6.2L98.21-6.2ZM104.02-4.17L114.13-4.17 114.13-21.39 104.02-21.39 104.02-4.17ZM145.03-6.2L145.03-38.84 150.87-38.84 150.87-4.17 156.07-4.17Q155.92-3.2 155.52-2.42 155.11-1.64 154.54-1.1 153.97-0.56 153.25-0.28 152.53 0 151.75 0L151.75 0 149.69 0Q148.74 0 147.89-0.49 147.03-0.98 146.4-1.82 145.76-2.66 145.4-3.78 145.03-4.91 145.03-6.2L145.03-6.2ZM159.97-6.2L159.97-19.36Q159.97-20.65 160.34-21.78 160.7-22.9 161.33-23.74 161.95-24.58 162.8-25.07 163.66-25.56 164.61-25.56L164.61-25.56 177.57-25.56Q178.53-25.56 179.37-25.07 180.21-24.58 180.84-23.74 181.48-22.9 181.85-21.78 182.21-20.65 182.21-19.36L182.21-19.36 182.21-11.23 165.81-11.23 165.81-4.17 183.73-4.17Q183.63-3.32 183.25-2.55 182.87-1.78 182.3-1.22 181.72-0.66 180.99-0.33 180.26 0 179.45 0L179.45 0 164.61 0Q163.66 0 162.8-0.49 161.95-0.98 161.33-1.82 160.7-2.66 160.34-3.78 159.97-4.91 159.97-6.2L159.97-6.2ZM165.81-14.65L176.38-14.65 176.38-21.39 165.81-21.39 165.81-14.65ZM188.34 0L198.59-27.03 204.45-27.03Q204.23-26.49 204.12-25.96 204.01-25.44 203.96-25.1L203.96-25.1Q203.89-24.19 204.25-23.46 204.62-22.73 205.24-22.06 205.87-21.39 206.68-20.73 207.5-20.07 208.36-19.34L208.36-19.34Q209.33-18.55 210.33-17.54 211.34-16.53 212.14-15.32 212.95-14.11 213.45-12.76 213.95-11.4 213.9-9.94L213.9-9.94Q213.85-8.91 213.46-7.97 213.07-7.03 212.43-6.29 211.8-5.54 210.96-5 210.11-4.47 209.19-4.22L209.19-4.22 218.27-4.22Q217.93-3.27 217.45-2.5 216.97-1.73 216.38-1.17 215.78-0.61 215.07-0.31 214.36 0 213.61 0L213.61 0 206.92 0Q205.79 0 205.05-0.35 204.3-0.71 203.88-1.29 203.45-1.88 203.29-2.65 203.13-3.42 203.21-4.25L203.21-4.25Q203.99-4.35 204.74-4.66 205.5-4.98 206.1-5.58 206.7-6.18 207.1-7.08 207.5-7.98 207.6-9.25L207.6-9.25Q207.7-10.25 207.4-11.13 207.11-12.01 206.62-12.79 206.13-13.57 205.5-14.28 204.87-14.99 204.25-15.65L204.25-15.65Q203.62-16.48 202.99-17.65 202.35-18.82 202.08-20.51L202.08-20.51 194.37 0 188.34 0ZM219.24 0L229.5-27.03 235.36-27.03Q235.14-26.49 235.03-25.96 234.92-25.44 234.87-25.1L234.87-25.1Q234.79-24.19 235.16-23.46 235.53-22.73 236.15-22.06 236.77-21.39 237.59-20.73 238.41-20.07 239.26-19.34L239.26-19.34Q240.24-18.55 241.24-17.54 242.24-16.53 243.05-15.32 243.85-14.11 244.35-12.76 244.85-11.4 244.8-9.94L244.8-9.94Q244.76-8.91 244.36-7.97 243.97-7.03 243.34-6.29 242.7-5.54 241.86-5 241.02-4.47 240.09-4.22L240.09-4.22 249.17-4.22Q248.83-3.27 248.36-2.5 247.88-1.73 247.28-1.17 246.68-0.61 245.98-0.31 245.27 0 244.51 0L244.51 0 237.82 0Q236.7 0 235.95-0.35 235.21-0.71 234.78-1.29 234.36-1.88 234.2-2.65 234.04-3.42 234.11-4.25L234.11-4.25Q234.89-4.35 235.65-4.66 236.41-4.98 237-5.58 237.6-6.18 238-7.08 238.41-7.98 238.51-9.25L238.51-9.25Q238.6-10.25 238.31-11.13 238.02-12.01 237.53-12.79 237.04-13.57 236.41-14.28 235.77-14.99 235.16-15.65L235.16-15.65Q234.53-16.48 233.89-17.65 233.26-18.82 232.99-20.51L232.99-20.51 225.27 0 219.24 0ZM253.57-3.83L253.57-3.83Q253.57-4.69 253.88-5.44 254.2-6.2 254.75-6.76 255.3-7.32 256.06-7.64 256.81-7.96 257.69-7.96L257.69-7.96Q258.55-7.96 259.29-7.64 260.04-7.32 260.6-6.76 261.16-6.2 261.49-5.44 261.82-4.69 261.82-3.83L261.82-3.83Q261.82-2.76 261.59-1.83 261.35-0.9 260.92-0.02 260.48 0.85 259.85 1.75 259.23 2.64 258.42 3.61L258.42 3.61 255.64 7.1 253.35 6.01 255.57-0.29Q254.67-0.83 254.12-1.75 253.57-2.66 253.57-3.83ZM287.52-6.2L287.52-38.84 293.36-38.84 293.36-4.17 298.56-4.17Q298.41-3.2 298.01-2.42 297.6-1.64 297.03-1.1 296.46-0.56 295.74-0.28 295.02 0 294.24 0L294.24 0 292.18 0Q291.23 0 290.38-0.49 289.52-0.98 288.89-1.82 288.25-2.66 287.89-3.78 287.52-4.91 287.52-6.2L287.52-6.2ZM302.46-6.2L302.46-19.36Q302.46-20.65 302.83-21.78 303.19-22.9 303.82-23.74 304.44-24.58 305.29-25.07 306.15-25.56 307.1-25.56L307.1-25.56 320.06-25.56Q321.01-25.56 321.86-25.07 322.7-24.58 323.33-23.74 323.97-22.9 324.34-21.78 324.7-20.65 324.7-19.36L324.7-19.36 324.7-11.23 308.3-11.23 308.3-4.17 326.22-4.17Q326.12-3.32 325.74-2.55 325.36-1.78 324.79-1.22 324.21-0.66 323.48-0.33 322.75 0 321.94 0L321.94 0 307.1 0Q306.15 0 305.29-0.49 304.44-0.98 303.82-1.82 303.19-2.66 302.83-3.78 302.46-4.91 302.46-6.2L302.46-6.2ZM308.3-14.65L318.87-14.65 318.87-21.39 308.3-21.39 308.3-14.65ZM333.59-6.13L333.59-18.68Q333.59-20.14 333.99-21.41 334.39-22.68 335.1-23.61 335.81-24.54 336.77-25.06 337.74-25.59 338.86-25.59L338.86-25.59 355.31-25.59 355.31-4.17 360.61-4.17Q360.51-3.32 360.14-2.55 359.76-1.78 359.18-1.22 358.61-0.66 357.88-0.33 357.15 0 356.34 0L356.34 0 353.73 0Q352.53 0 351.46-0.82 350.38-1.64 349.67-3.03L349.67-3.03Q348.97-1.64 347.89-0.82 346.82 0 345.62 0L345.62 0 338.22 0Q337.27 0 336.42-0.49 335.56-0.98 334.94-1.81 334.32-2.64 333.95-3.75 333.59-4.86 333.59-6.13L333.59-6.13ZM339.4-4.17L349.5-4.17 349.5-21.39 339.4-21.39 339.4-4.17ZM364.86 0L364.86-28.25 370.72-28.25 370.72-25.56 389.13-25.56Q389.03-24.71 388.65-23.94 388.27-23.17 387.71-22.61 387.15-22.05 386.43-21.72 385.71-21.39 384.95-21.39L384.95-21.39 384.95-4.17 390.61-4.17Q390.52-3.32 390.14-2.55 389.76-1.78 389.17-1.22 388.59-0.66 387.83-0.33 387.07 0 386.22 0L386.22 0 383.78 0Q382.83 0 381.97-0.49 381.12-0.98 380.48-1.82 379.85-2.66 379.48-3.78 379.12-4.91 379.12-6.2L379.12-6.2 379.12-21.39 370.67-21.39 370.67 0 364.86 0ZM396.67 0L396.67-25.56 402.5-25.56 402.5-15.89 410.05-23.71Q410.83-24.61 411.67-25.1 412.51-25.59 413.68-25.59L413.68-25.59Q414.66-25.59 415.56-25.1 416.47-24.61 417.15-23.77 417.83-22.92 418.24-21.8 418.64-20.68 418.64-19.38L418.64-19.38 418.64-4.2 423.57-4.2Q423.47-3.32 423.09-2.56 422.72-1.81 422.14-1.23 421.57-0.66 420.84-0.33 420.1 0 419.3 0L419.3 0 417.39 0Q416.42 0 415.58-0.49 414.73-0.98 414.11-1.82 413.49-2.66 413.12-3.78 412.76-4.91 412.76-6.2L412.76-6.2 412.76-21.04 402.5-10.5 402.5 0 396.67 0ZM444.85 0L444.85-25.56 450.69-25.56 450.69-15.75 456.62-23.71Q457.4-24.63 458.25-25.11 459.09-25.59 460.31-25.59L460.31-25.59Q461.29-25.59 462.18-25.1 463.07-24.61 463.74-23.77 464.41-22.92 464.81-21.8 465.22-20.68 465.22-19.38L465.22-19.38 465.22-16.63 470.34-23.71Q471.12-24.61 472.1-25.1 473.08-25.59 474.27-25.59L474.27-25.59Q475.25-25.59 476.14-25.1 477.03-24.61 477.7-23.77 478.38-22.92 478.78-21.8 479.18-20.68 479.18-19.38L479.18-19.38 479.18-4.17 483.53-4.17Q483.43-3.32 483.05-2.55 482.67-1.78 482.1-1.22 481.52-0.66 480.79-0.33 480.06 0 479.25 0L479.25 0 477.94 0Q476.98 0 476.14-0.49 475.3-0.98 474.69-1.82 474.08-2.66 473.72-3.78 473.37-4.91 473.37-6.2L473.37-6.2 473.37-20.87 465.22-10.99 465.22 0 459.38 0 459.38-20.87 450.69-10.13 450.69 0 444.85 0ZM488.53-6.15L488.53-19.36Q488.53-20.65 488.9-21.79 489.26-22.92 489.88-23.77 490.51-24.61 491.34-25.09 492.17-25.56 493.12-25.56L493.12-25.56 513.58-25.56Q513.48-24.71 513.1-23.94 512.72-23.17 512.15-22.61 511.58-22.05 510.84-21.72 510.11-21.39 509.31-21.39L509.31-21.39 507.77-21.39Q508.23-21.04 508.68-20.51 509.13-19.97 509.49-19.26 509.84-18.55 510.05-17.71 510.26-16.87 510.26-15.89L510.26-15.89 510.26-6.15Q510.26-4.88 509.89-3.76 509.53-2.64 508.89-1.81 508.26-0.98 507.41-0.49 506.57 0 505.62 0L505.62 0 493.12 0Q492.17 0 491.34-0.49 490.51-0.98 489.88-1.81 489.26-2.64 488.9-3.76 488.53-4.88 488.53-6.15L488.53-6.15ZM494.36-4.17L504.42-4.17 504.42-21.39 494.36-21.39 494.36-4.17ZM519.65 0L519.65-28.25 525.51-28.25 525.51-25.56 543.92-25.56Q543.82-24.71 543.45-23.94 543.07-23.17 542.51-22.61 541.94-22.05 541.22-21.72 540.5-21.39 539.75-21.39L539.75-21.39 539.75-4.17 545.41-4.17Q545.31-3.32 544.94-2.55 544.56-1.78 543.97-1.22 543.39-0.66 542.63-0.33 541.87 0 541.02 0L541.02 0 538.58 0Q537.62 0 536.77-0.49 535.91-0.98 535.28-1.82 534.64-2.66 534.28-3.78 533.91-4.91 533.91-6.2L533.91-6.2 533.91-21.39 525.47-21.39 525.47 0 519.65 0ZM550.78-6.2L550.78-19.36Q550.78-20.65 551.15-21.78 551.51-22.9 552.14-23.74 552.76-24.58 553.61-25.07 554.47-25.56 555.42-25.56L555.42-25.56 568.38-25.56Q569.33-25.56 570.18-25.07 571.02-24.58 571.65-23.74 572.29-22.9 572.66-21.78 573.02-20.65 573.02-19.36L573.02-19.36 573.02-11.23 556.62-11.23 556.62-4.17 574.53-4.17Q574.44-3.32 574.06-2.55 573.68-1.78 573.11-1.22 572.53-0.66 571.8-0.33 571.07 0 570.26 0L570.26 0 555.42 0Q554.47 0 553.61-0.49 552.76-0.98 552.14-1.82 551.51-2.66 551.15-3.78 550.78-4.91 550.78-6.2L550.78-6.2ZM556.62-14.65L567.19-14.65 567.19-21.39 556.62-21.39 556.62-14.65Z" opacity="1" transform="matrix(1,0,0,1,0,0)" fill="#dfd5cb" class="slogan-text-1" data-fill-palette-color="quaternary" id="text-1"></path></svg></g></svg></g></svg></g></svg></g></svg></g><defs></defs></svg><rect width="395.52" height="125.15804159469425" fill="none" stroke="none" visibility="hidden"></rect></g></svg></g></svg>